<?xml version="1.0" encoding="UTF-8" standalone="no"?>
<!DOCTYPE svg PUBLIC "-//W3C//DTD SVG 1.1//EN" "http://www.w3.org/Graphics/SVG/1.1/DTD/svg11.dtd">
<svg xmlns="http://www.w3.org/2000/svg" version="1.1" viewBox="0.00 0.00 468.00 110.00">
<g fill="#df2449">
<path d="
  M 219.26 38.66
  Q 223.41 34.39 228.00 29.99
  C 237.18 21.19 252.40 23.49 257.55 35.28
  C 261.22 43.69 258.77 51.44 252.43 57.70
  Q 245.25 64.80 238.08 71.92
  Q 229.47 80.48 225.44 82.25
  C 215.11 86.79 208.09 80.78 200.37 73.17
  Q 193.78 66.66 187.27 60.08
  Q 180.58 53.33 179.03 49.55
  C 173.41 35.83 187.18 21.25 201.48 25.32
  C 207.60 27.06 213.56 33.64 217.84 38.61
  A 0.97 0.96 46.7 0 0 219.26 38.66
  Z
  M 193.13 42.87
  A 2.41 2.40 75.1 0 1 194.89 39.82
  Q 196.47 39.46 197.66 40.60
  Q 207.19 49.81 216.62 59.14
  C 220.31 62.79 223.64 66.41 228.84 66.77
  Q 235.04 67.21 239.62 62.13
  Q 240.05 61.66 239.42 61.56
  Q 232.00 60.38 227.71 56.08
  Q 217.63 45.98 207.47 35.97
  Q 203.32 31.88 200.45 30.88
  C 188.77 26.83 177.71 41.75 186.59 51.17
  Q 194.51 59.57 207.79 72.34
  Q 212.28 76.66 215.40 77.63
  Q 222.11 79.71 228.07 73.97
  A 0.75 0.75 0.0 0 0 227.70 72.69
  Q 222.39 71.56 217.80 67.95
  Q 212.81 64.03 196.29 46.83
  C 195.26 45.75 193.61 44.44 193.13 42.87
  Z
  M 240.27 30.20
  Q 237.37 30.18 235.58 31.29
  Q 229.91 34.83 224.20 42.91
  Q 223.94 43.26 224.22 43.60
  C 228.79 49.05 234.42 56.84 242.31 55.87
  C 258.27 53.92 256.91 30.31 240.27 30.20
  Z"
/>
<path d="
  M 284.81 45.46
  L 286.04 46.08
  Q 286.54 46.33 286.86 46.80
  Q 287.52 47.78 286.73 48.93
  Q 286.39 49.42 285.82 49.58
  L 285.34 49.72
  Q 284.83 49.86 284.81 50.40
  L 284.28 64.50
  Q 284.25 65.15 283.61 65.07
  L 280.91 64.76
  A 0.66 0.66 0.0 0 1 280.32 64.13
  L 279.72 51.23
  A 1.21 1.21 0.0 0 0 279.23 50.32
  C 277.96 49.38 277.58 48.37 278.41 46.87
  C 280.30 43.45 282.12 38.83 286.96 39.76
  A 0.76 0.75 -84.4 0 1 287.56 40.50
  Q 287.56 43.39 284.83 44.58
  A 0.49 0.48 46.6 0 0 284.81 45.46
  Z"
/>
<path d="
  M 82.72 46.99
  C 84.43 46.55 85.94 45.84 87.60 45.77
  C 103.16 45.08 99.07 71.10 83.58 64.38
  A 0.56 0.48 49.1 0 0 83.30 64.34
  L 78.46 65.09
  A 0.69 0.69 0.0 0 1 77.66 64.41
  L 77.69 40.65
  Q 77.70 40.01 78.34 39.98
  L 81.20 39.86
  A 0.61 0.61 0.0 0 1 81.84 40.45
  L 82.03 46.47
  A 0.55 0.55 0.0 0 0 82.72 46.99
  Z
  M 93.35 55.57
  A 5.62 5.62 0.0 0 0 87.73 49.95
  A 5.62 5.62 0.0 0 0 82.11 55.57
  A 5.62 5.62 0.0 0 0 87.73 61.19
  A 5.62 5.62 0.0 0 0 93.35 55.57
  Z"
/>
<rect x="-2.13" y="-2.10" transform="translate(326.05,42.08) rotate(-1.5)" width="4.26" height="4.20" rx="1.13"/>
<path d="
  M 348.68 46.75
  L 348.45 40.70
  Q 348.42 40.03 349.09 40.02
  L 352.17 39.95
  Q 352.67 39.93 352.67 40.43
  L 352.76 64.29
  A 0.61 0.60 3.4 0 1 352.08 64.89
  L 347.24 64.37
  A 1.37 1.32 -52.4 0 0 346.56 64.47
  C 335.80 68.85 327.85 55.22 336.48 47.98
  Q 341.23 43.99 348.05 47.17
  A 0.44 0.44 0.0 0 0 348.68 46.75
  Z
  M 348.50 55.57
  A 5.53 5.53 0.0 0 0 342.97 50.04
  A 5.53 5.53 0.0 0 0 337.44 55.57
  A 5.53 5.53 0.0 0 0 342.97 61.10
  A 5.53 5.53 0.0 0 0 348.50 55.57
  Z"
/>
<rect x="-1.98" y="-12.26" transform="translate(293.51,52.56) rotate(-0.4)" width="3.96" height="24.52" rx="0.64"/>
<path d="
  M 121.17 55.49
  A 9.92 9.92 0.0 0 1 111.25 65.41
  A 9.92 9.92 0.0 0 1 101.33 55.49
  A 9.92 9.92 0.0 0 1 111.25 45.57
  A 9.92 9.92 0.0 0 1 121.17 55.49
  Z
  M 111.2498 61.2899
  A 5.76 5.43 90.3 0 0 116.7099 55.5584
  A 5.76 5.43 90.3 0 0 111.3102 49.7701
  A 5.76 5.43 90.3 0 0 105.8501 55.5016
  A 5.76 5.43 90.3 0 0 111.2498 61.2899
  Z"
/>
<path d="
  M 130.95 47.03
  C 136.35 44.54 141.87 46.20 142.50 52.74
  Q 142.79 55.80 142.45 64.33
  Q 142.43 64.80 141.96 64.81
  L 138.29 64.90
  A 0.58 0.58 0.0 0 1 137.69 64.30
  Q 137.87 59.98 137.76 55.76
  C 137.69 52.99 137.54 49.42 133.55 50.14
  C 128.66 51.02 129.73 61.02 129.89 64.29
  A 0.59 0.58 88.0 0 1 129.33 64.90
  L 126.39 65.02
  A 0.64 0.64 0.0 0 1 125.73 64.38
  L 125.76 46.77
  A 0.84 0.84 0.0 0 1 126.60 45.93
  Q 128.42 45.91 129.94 46.95
  Q 130.42 47.27 130.95 47.03
  Z"
/>
<path d="
  M 153.64 49.25
  A 1.13 1.12 -55.3 0 0 151.91 49.57
  Q 150.89 51.49 153.05 52.40
  Q 155.26 53.33 157.16 54.75
  Q 159.15 56.23 159.48 58.31
  C 160.85 66.83 146.78 68.17 147.05 59.34
  Q 147.07 58.88 147.50 58.72
  Q 150.28 57.66 151.11 60.37
  A 1.59 1.57 8.0 0 0 151.76 61.22
  Q 153.72 62.48 155.20 60.74
  A 1.92 1.91 -58.6 0 0 154.47 57.72
  C 152.80 57.04 149.97 56.11 148.77 54.62
  C 143.19 47.63 157.57 40.58 158.92 50.67
  A 0.49 0.49 0.0 0 1 158.43 51.23
  L 156.17 51.21
  A 0.74 0.72 65.7 0 1 155.68 51.02
  L 153.64 49.25
  Z"
/>
<path d="
  M 311.07 61.15
  C 315.05 59.17 313.92 50.35 314.07 46.75
  Q 314.09 46.22 314.61 46.22
  L 317.37 46.19
  Q 318.06 46.19 318.06 46.87
  L 318.14 64.08
  A 1.03 1.03 0.0 0 1 316.74 65.05
  Q 314.06 64.01 311.22 64.72
  Q 308.32 65.45 307.16 65.27
  Q 301.18 64.37 301.40 57.23
  Q 301.57 51.80 301.85 46.31
  A 0.56 0.56 0.0 0 1 302.50 45.79
  L 305.15 46.24
  Q 305.77 46.35 305.73 46.97
  Q 305.39 52.65 306.22 58.25
  C 306.56 60.54 308.87 62.24 311.07 61.15
  Z"
/>
<path d="
  M 376.90 55.51
  A 9.90 9.90 0.0 0 1 367.00 65.41
  A 9.90 9.90 0.0 0 1 357.10 55.51
  A 9.90 9.90 0.0 0 1 367.00 45.61
  A 9.90 9.90 0.0 0 1 376.90 55.51
  Z
  M 366.7980 61.2949
  A 5.78 5.41 92.4 0 0 372.4453 55.7465
  A 5.78 5.41 92.4 0 0 367.2820 49.7451
  A 5.78 5.41 92.4 0 0 361.6347 55.2935
  A 5.78 5.41 92.4 0 0 366.7980 61.2949
  Z"
/>
<path d="
  M 387.64 49.40
  A 1.23 1.23 0.0 0 0 385.55 49.57
  Q 384.64 51.37 386.17 52.29
  C 390.16 54.70 393.89 55.36 392.31 61.28
  Q 391.49 64.38 388.41 65.08
  Q 382.75 66.36 380.36 60.54
  A 1.52 1.52 0.0 0 1 381.97 58.46
  L 383.53 58.67
  Q 384.14 58.75 384.28 59.35
  C 385.08 62.77 389.24 62.35 388.96 59.59
  C 388.63 56.48 383.68 57.00 382.10 54.25
  C 378.31 47.61 387.13 42.14 392.23 48.73
  A 1.61 1.61 0.0 0 1 390.79 51.32
  Q 389.79 51.21 389.00 50.95
  A 0.91 0.90 80.8 0 1 388.56 50.63
  L 387.64 49.40
  Z"
/>
<rect x="-2.15" y="-9.40" transform="translate(325.94,55.54) rotate(-0.2)" width="4.30" height="18.80" rx="0.96"/>
</g>
</svg>
