<?xml version="1.0" encoding="UTF-8" standalone="no"?>
<!DOCTYPE svg PUBLIC "-//W3C//DTD SVG 1.1//EN" "http://www.w3.org/Graphics/SVG/1.1/DTD/svg11.dtd">
<svg xmlns="http://www.w3.org/2000/svg" version="1.1" viewBox="0.00 0.00 529.00 363.00">
<path fill="#df1f4c" d="
  M 81.19 163.73
  L 81.19 166.81
  A 0.87 0.87 0.0 0 1 80.32 167.68
  L 64.25 167.70
  A 0.95 0.95 0.0 0 1 63.30 166.75
  L 63.31 67.57
  A 0.71 0.71 0.0 0 1 64.02 66.86
  L 80.55 66.87
  Q 81.23 66.87 81.23 67.55
  L 81.28 94.98
  A 1.03 1.03 0.0 0 0 82.90 95.82
  Q 87.88 92.27 93.47 90.91
  C 110.49 86.77 127.84 92.25 137.46 107.36
  C 148.45 124.63 144.84 148.46 128.78 161.46
  C 116.43 171.45 99.64 172.11 85.60 164.99
  C 84.63 164.50 83.45 162.86 81.78 163.07
  A 0.67 0.66 -3.4 0 0 81.19 163.73
  Z
  M 102.4504 151.8305
  A 22.20 21.68 92.4 0 0 125.0410 130.5579
  A 22.20 21.68 92.4 0 0 104.3096 107.4695
  A 22.20 21.68 92.4 0 0 81.7190 128.7421
  A 22.20 21.68 92.4 0 0 102.4504 151.8305
  Z"
/>
<path fill="#df1f4c" d="
  M 238.25 129.45
  A 40.25 40.25 0.0 0 1 198.00 169.70
  A 40.25 40.25 0.0 0 1 157.75 129.45
  A 40.25 40.25 0.0 0 1 198.00 89.20
  A 40.25 40.25 0.0 0 1 238.25 129.45
  Z
  M 177.44 122.74
  C 174.79 134.89 179.38 148.85 192.99 151.34
  C 208.98 154.27 219.59 143.44 219.16 128.03
  Q 218.99 122.12 216.38 117.35
  C 207.53 101.23 181.43 104.46 177.44 122.74
  Z"
/>
<path fill="#df1f4c" d="
  M 370.66 120.05
  C 376.62 122.24 383.84 125.89 387.66 131.17
  C 391.52 136.52 392.04 144.89 390.64 151.05
  C 386.81 167.89 366.08 174.98 351.95 165.84
  C 344.77 161.20 341.75 152.69 340.63 144.42
  Q 340.42 142.83 342.00 142.57
  Q 348.91 141.45 355.83 141.92
  A 1.36 1.35 -87.0 0 1 357.09 143.33
  Q 356.97 146.69 358.60 149.69
  C 362.74 157.28 374.36 155.44 374.64 146.52
  C 374.89 138.27 363.18 134.97 356.49 132.45
  C 345.56 128.32 341.54 114.91 345.28 104.51
  C 349.47 92.83 362.70 86.81 374.52 90.30
  C 384.14 93.14 389.25 100.93 389.78 110.73
  A 1.35 1.35 0.0 0 1 388.43 112.16
  L 374.56 112.12
  A 1.07 1.07 0.0 0 1 373.50 111.03
  C 373.56 106.40 370.59 103.82 366.05 104.11
  C 360.74 104.45 357.51 111.31 362.11 115.13
  Q 365.96 118.32 370.66 120.05
  Z"
/>
<path fill="#df1f4c" d="
  M 273.43 97.40
  A 0.86 0.86 0.0 0 0 274.94 97.93
  Q 281.55 90.42 291.24 89.96
  Q 313.87 88.87 321.19 108.55
  Q 322.14 111.13 322.46 115.14
  C 322.70 118.08 323.19 121.25 323.19 124.12
  Q 323.18 145.54 323.20 166.80
  A 0.90 0.89 89.7 0 1 322.32 167.70
  L 306.70 168.02
  A 1.78 1.78 0.0 0 1 304.88 166.22
  Q 305.14 146.65 304.79 126.99
  C 304.69 121.01 303.38 112.57 297.85 109.33
  C 295.61 108.03 292.90 108.22 290.16 107.80
  Q 288.14 107.50 286.80 107.65
  C 272.31 109.33 273.36 128.32 273.29 138.60
  Q 273.19 152.71 273.27 166.70
  A 0.97 0.96 89.7 0 1 272.31 167.68
  L 257.34 167.80
  A 1.46 1.46 0.0 0 1 255.87 166.34
  L 255.89 92.68
  A 1.18 1.17 0.0 0 1 257.07 91.51
  L 272.24 91.54
  A 0.99 0.99 0.0 0 1 273.23 92.49
  L 273.43 97.40
  Z"
/>
<path fill="#df1f4c" d="
  M 67.29 242.35
  L 59.47 242.10
  Q 58.86 242.08 58.85 241.47
  L 58.75 227.17
  A 1.36 1.36 0.0 0 1 60.08 225.80
  L 66.68 225.68
  A 0.67 0.66 -0.0 0 0 67.33 225.04
  C 67.60 217.84 68.56 210.95 74.02 206.05
  C 79.67 200.99 89.23 199.61 96.91 200.15
  A 1.39 1.38 1.8 0 1 98.20 201.52
  L 98.24 215.03
  A 0.88 0.87 -10.9 0 1 97.69 215.84
  Q 95.99 216.52 93.81 216.63
  Q 85.67 217.03 85.79 225.15
  A 0.55 0.55 0.0 0 0 86.33 225.69
  L 96.17 225.81
  A 2.11 2.11 0.0 0 1 98.25 227.92
  L 98.22 240.40
  A 1.87 1.86 -0.0 0 1 96.35 242.26
  L 86.37 242.25
  A 0.88 0.87 90.0 0 0 85.50 243.13
  L 85.49 300.99
  Q 85.49 302.23 84.26 302.23
  L 69.10 302.26
  Q 67.93 302.26 67.93 301.10
  L 67.96 243.04
  Q 67.96 242.37 67.29 242.35
  Z"
/>
<rect fill="#df1f4c" x="113.50" y="201.38" width="17.66" height="100.86" rx="1.13"/>
<rect fill="#df1f4c" x="-8.84" y="-8.62" transform="translate(251.84,210.01) rotate(0.1)" width="17.68" height="17.24" rx="0.75"/>
<path fill="#df1f4c" d="
  M 342.22 230.23
  L 342.28 202.05
  Q 342.28 201.39 342.95 201.39
  L 358.88 201.39
  A 1.00 0.99 0.0 0 1 359.88 202.38
  L 359.91 301.06
  A 1.18 1.17 -0.2 0 1 358.74 302.23
  L 343.32 302.26
  A 1.11 1.11 0.0 0 1 342.24 300.88
  Q 342.69 298.98 341.74 297.38
  Q 341.43 296.85 340.94 297.21
  C 329.91 305.39 314.10 306.27 302.11 300.67
  C 276.96 288.92 271.66 254.80 291.20 235.36
  Q 305.37 221.26 327.26 224.97
  Q 334.70 226.23 340.95 230.87
  A 0.80 0.80 0.0 0 0 342.22 230.23
  Z
  M 320.4246 286.5033
  A 22.29 21.72 88.6 0 0 341.5935 263.6893
  A 22.29 21.72 88.6 0 0 319.3354 241.9367
  A 22.29 21.72 88.6 0 0 298.1665 264.7507
  A 22.29 21.72 88.6 0 0 320.4246 286.5033
  Z"
/>
<path fill="#df1f4c" d="
  M 456.82 264.01
  A 40.23 40.23 0.0 0 1 416.59 304.24
  A 40.23 40.23 0.0 0 1 376.36 264.01
  A 40.23 40.23 0.0 0 1 416.59 223.78
  A 40.23 40.23 0.0 0 1 456.82 264.01
  Z
  M 416.0533 286.7258
  A 22.75 21.63 91.1 0 0 438.1160 264.3952
  A 22.75 21.63 91.1 0 0 416.9267 241.2342
  A 22.75 21.63 91.1 0 0 394.8640 263.5648
  A 22.75 21.63 91.1 0 0 416.0533 286.7258
  Z"
/>
<path fill="#df1f4c" d="
  M 502.73 245.98
  C 503.13 236.08 489.36 236.40 489.24 244.92
  C 489.18 249.52 495.03 252.95 498.78 254.31
  C 508.18 257.72 517.40 262.22 519.70 272.58
  C 524.03 292.12 510.26 306.13 491.05 303.92
  C 477.28 302.33 470.31 290.29 469.70 277.48
  A 0.59 0.59 0.0 0 1 470.28 276.86
  L 485.47 276.70
  A 0.88 0.88 0.0 0 1 486.36 277.64
  C 485.84 284.42 490.45 290.45 498.00 288.52
  Q 501.23 287.69 502.60 285.12
  C 508.70 273.67 491.39 269.60 484.51 266.32
  C 476.60 262.56 472.55 254.15 473.09 245.81
  Q 473.64 237.38 479.57 231.12
  C 487.74 222.51 501.90 221.59 511.13 228.72
  Q 518.56 234.47 518.80 245.26
  Q 518.83 246.65 517.44 246.64
  L 503.28 246.55
  A 0.55 0.55 0.0 0 1 502.73 245.98
  Z"
/>
<path fill="#df1f4c" d="
  M 201.68 296.13
  Q 192.95 305.18 180.00 304.25
  C 158.92 302.73 152.97 286.89 152.99 268.31
  Q 153.01 247.58 153.00 226.89
  A 1.08 1.08 0.0 0 1 154.08 225.81
  L 170.20 225.76
  A 1.11 1.10 -0.0 0 1 171.31 226.86
  Q 171.27 246.46 171.34 266.25
  Q 171.35 269.49 172.32 274.32
  Q 173.30 279.23 175.24 281.76
  C 181.51 289.95 196.32 287.93 200.33 278.58
  C 202.27 274.02 202.82 267.48 202.84 261.73
  Q 202.90 245.56 202.90 228.12
  A 2.33 2.32 89.9 0 1 205.21 225.79
  L 219.49 225.70
  A 1.29 1.29 0.0 0 1 220.78 226.99
  L 220.78 301.13
  Q 220.78 302.30 219.62 302.29
  L 203.69 302.18
  Q 202.71 302.18 202.69 301.20
  L 202.56 296.47
  A 0.51 0.51 0.0 0 0 201.68 296.13
  Z"
/>
<rect fill="#df1f4c" x="243.00" y="225.78" width="17.70" height="76.46" rx="1.27"/>
</svg>
