<?xml version="1.0" encoding="UTF-8" standalone="no"?>
<!DOCTYPE svg PUBLIC "-//W3C//DTD SVG 1.1//EN" "http://www.w3.org/Graphics/SVG/1.1/DTD/svg11.dtd">
<svg xmlns="http://www.w3.org/2000/svg" version="1.1" viewBox="0.00 0.00 875.00 682.00">
<path fill="#e01f4c" d="
  M 875.00 222.63
  L 875.00 234.25
  C 874.99 238.26 873.70 242.39 873.32 245.57
  Q 870.18 272.38 860.68 297.51
  Q 858.23 304.02 854.09 312.51
  Q 848.92 323.14 846.59 327.09
  Q 832.35 351.21 816.89 366.89
  Q 771.35 413.05 619.27 564.39
  C 605.79 577.80 591.94 591.14 578.39 604.64
  C 548.02 634.89 506.98 656.24 464.01 662.92
  C 462.23 663.20 459.94 663.10 457.96 663.50
  Q 454.97 664.10 453.49 664.13
  Q 436.40 664.45 419.31 664.09
  Q 418.26 664.06 416.76 663.62
  C 414.80 663.04 411.61 663.05 410.35 662.85
  C 375.12 657.27 342.83 642.39 315.82 621.42
  Q 302.51 611.08 288.28 596.42
  C 286.10 594.17 282.65 591.79 280.26 588.93
  Q 279.93 588.54 279.80 588.04
  Q 279.38 586.47 277.67 586.16
  A 0.78 0.78 0.0 0 1 277.27 585.96
  L 252.81 561.50
  Q 252.41 561.10 251.84 561.13
  Q 250.84 561.19 250.91 560.17
  Q 250.94 559.63 250.56 559.25
  Q 245.46 554.10 240.24 549.05
  C 239.52 548.35 238.52 548.16 237.91 547.23
  Q 236.95 545.77 236.71 545.53
  Q 209.29 518.74 182.00 491.80
  A 1.10 1.08 -68.9 0 1 181.67 491.04
  Q 181.65 490.26 180.80 490.26
  Q 180.36 490.26 180.04 489.95
  L 80.48 389.52
  Q 80.13 389.17 79.65 389.10
  Q 78.90 388.98 78.90 388.16
  Q 78.90 387.60 78.51 387.21
  L 55.96 364.63
  Q 55.80 364.48 55.76 364.26
  Q 55.74 364.12 55.71 363.99
  Q 55.65 363.76 55.47 363.57
  Q 36.42 343.77 22.88 317.24
  Q 7.88 287.86 3.34 257.22
  Q 1.91 247.56 0.91 242.33
  C 0.35 239.47 0.33 236.76 0.00 233.88
  L 0.00 222.49
  Q 0.54 216.90 1.37 211.31
  Q 2.76 201.88 3.02 200.17
  Q 7.72 168.51 21.15 141.98
  Q 51.57 81.90 111.93 51.51
  Q 121.06 46.91 130.24 43.52
  Q 139.80 39.98 149.70 37.39
  Q 162.70 33.99 176.06 32.71
  Q 176.59 32.66 179.62 32.10
  Q 181.23 31.81 183.25 31.79
  Q 203.93 31.61 216.37 31.90
  Q 216.71 31.91 216.92 32.18
  L 217.17 32.49
  Q 217.29 32.64 217.47 32.64
  Q 229.40 32.97 240.87 36.19
  Q 242.43 36.63 244.67 36.96
  Q 246.61 37.25 248.52 37.78
  Q 299.23 51.92 337.57 87.93
  Q 347.68 97.43 367.08 117.67
  Q 400.98 153.03 434.97 187.42
  A 2.76 2.76 0.0 0 0 438.88 187.45
  Q 470.27 156.40 500.98 124.48
  Q 519.00 105.76 538.05 88.09
  Q 564.03 64.00 596.15 49.13
  C 597.08 48.70 598.01 48.93 599.05 48.19
  Q 599.74 47.69 600.09 47.54
  Q 627.99 35.69 658.14 32.41
  C 659.02 32.31 659.86 31.82 660.87 31.80
  Q 679.58 31.50 698.30 31.87
  A 0.90 0.90 0.0 0 1 698.95 32.17
  L 699.20 32.44
  Q 699.47 32.74 699.86 32.73
  C 704.38 32.64 706.43 33.27 709.86 33.72
  C 714.34 34.31 718.66 35.39 723.07 36.35
  Q 728.97 37.64 732.97 38.83
  Q 781.33 53.25 816.42 89.31
  Q 864.70 138.92 873.23 207.93
  C 873.68 211.62 874.84 217.64 875.00 222.63
  Z
  M 696.89 365.83
  Q 743.41 358.06 775.48 325.08
  C 798.45 301.46 811.36 270.53 813.29 237.49
  C 816.51 182.45 788.99 132.30 740.89 106.44
  Q 713.80 91.88 683.00 89.93
  Q 630.55 86.62 591.56 121.31
  Q 562.78 146.92 537.55 176.04
  Q 515.04 202.03 492.43 227.64
  A 1.48 1.47 -45.5 0 0 492.44 229.60
  C 517.43 257.31 541.01 286.13 567.03 312.97
  Q 582.68 329.11 595.83 339.92
  Q 621.93 361.39 656.54 366.18
  Q 676.59 368.96 696.66 366.07
  Q 696.73 366.06 696.82 365.89
  Q 696.84 365.84 696.89 365.83
  Z
  M 452.98 605.16
  C 487.90 601.79 521.10 584.09 541.73 555.46
  A 1.98 1.97 29.9 0 0 540.92 552.49
  Q 524.78 545.39 507.86 539.08
  C 485.77 530.84 463.50 522.39 444.18 508.60
  Q 437.89 504.12 428.86 495.77
  C 340.79 414.34 257.68 328.15 172.74 243.55
  Q 166.94 237.77 163.79 230.39
  C 157.91 216.63 167.28 202.40 179.01 195.52
  C 186.28 191.26 192.80 190.29 200.88 193.57
  Q 209.56 197.10 216.10 203.65
  Q 334.48 322.27 453.51 440.24
  Q 470.28 456.87 489.92 468.07
  Q 524.27 487.66 563.53 485.39
  Q 573.38 484.82 583.32 482.56
  C 618.13 474.64 644.90 454.44 669.74 429.13
  A 1.12 1.12 0.0 0 0 669.07 427.23
  Q 663.13 426.54 656.85 425.89
  Q 649.45 425.14 644.66 424.24
  Q 594.65 414.86 553.70 383.27
  Q 530.73 365.55 512.11 345.32
  C 500.94 333.19 489.47 320.91 477.84 309.51
  C 460.04 292.08 442.06 274.80 424.49 257.13
  Q 380.77 213.17 336.89 169.36
  Q 310.79 143.30 291.31 125.70
  Q 261.76 99.00 221.57 92.40
  C 220.44 92.21 219.54 91.49 218.30 91.50
  Q 216.27 91.52 216.17 91.51
  Q 199.71 89.61 191.00 90.59
  Q 186.69 91.07 183.99 91.28
  Q 179.90 91.61 177.05 92.24
  C 172.15 93.32 166.79 94.14 162.30 95.40
  Q 113.66 109.09 85.58 149.33
  Q 56.94 190.37 60.65 242.52
  C 60.78 244.28 61.19 246.41 61.41 248.03
  Q 65.72 281.07 85.23 307.22
  Q 89.41 312.83 98.41 322.22
  Q 219.10 448.22 345.48 568.52
  Q 390.31 611.19 452.98 605.16
  Z"
/>
</svg>
