<?xml version="1.0" encoding="UTF-8" standalone="no"?>
<!DOCTYPE svg PUBLIC "-//W3C//DTD SVG 1.1//EN" "http://www.w3.org/Graphics/SVG/1.1/DTD/svg11.dtd">
<svg xmlns="http://www.w3.org/2000/svg" version="1.1" viewBox="0.00 0.00 874.00 409.00">
<g fill="#e01f4c">
<path d="
  M 423.20 134.99
  A 1.03 1.02 -15.7 0 0 424.76 135.86
  Q 434.58 129.82 445.50 129.78
  Q 469.83 129.71 481.11 150.84
  Q 486.78 161.47 485.26 174.23
  Q 484.10 184.05 479.34 191.56
  C 468.44 208.74 447.39 214.27 429.17 205.63
  C 427.60 204.88 426.11 203.07 423.70 202.98
  A 0.52 0.51 -87.8 0 0 423.17 203.48
  L 423.03 206.83
  A 0.72 0.72 0.0 0 1 422.31 207.52
  L 406.25 207.51
  Q 405.49 207.51 405.49 206.75
  L 405.50 108.45
  Q 405.50 106.90 407.05 106.91
  L 422.06 106.92
  A 1.14 1.14 0.0 0 1 423.20 108.06
  L 423.20 134.99
  Z
  M 444.2936 191.8634
  A 22.24 21.73 92.8 0 0 467.0841 170.7115
  A 22.24 21.73 92.8 0 0 446.4664 147.4366
  A 22.24 21.73 92.8 0 0 423.6759 168.5885
  A 22.24 21.73 92.8 0 0 444.2936 191.8634
  Z"
/>
<path d="
  M 0.00 189.88
  L 0.00 170.70
  L 0.88 169.93
  Q 1.22 169.63 1.31 169.18
  Q 8.08 134.29 37.94 116.65
  Q 45.17 112.38 54.03 109.83
  C 76.31 103.41 100.24 108.11 118.70 121.50
  Q 123.98 125.33 133.50 134.90
  Q 148.20 149.68 162.32 164.37
  A 1.98 1.97 45.2 0 0 165.17 164.38
  Q 181.79 147.17 198.68 130.19
  Q 212.29 116.52 231.79 110.29
  Q 251.46 104.02 271.77 109.15
  C 296.48 115.39 315.28 134.10 323.55 158.08
  Q 324.58 161.06 325.45 166.00
  Q 325.93 168.68 326.51 171.36
  Q 327.15 174.34 327.19 176.74
  Q 327.66 202.74 313.43 223.39
  Q 309.59 228.97 300.25 238.37
  Q 259.12 279.80 217.64 320.89
  C 202.24 336.14 181.66 345.15 160.30 344.02
  C 142.50 343.07 124.88 335.13 112.14 322.86
  Q 76.23 288.27 26.65 237.73
  Q 17.26 228.16 13.55 222.69
  Q 4.24 208.97 1.29 192.22
  Q 1.20 191.74 0.94 191.32
  L 0.00 189.88
  Z
  M 185.63 182.11
  C 195.74 194.19 206.24 206.11 217.67 217.32
  Q 237.38 236.66 262.60 231.48
  Q 272.69 229.41 281.00 223.98
  C 313.54 202.71 310.65 153.39 276.72 135.58
  C 263.63 128.71 249.08 127.29 235.28 132.56
  Q 229.45 134.79 223.14 139.91
  C 209.12 151.30 197.47 166.15 185.65 179.60
  A 1.94 1.93 45.6 0 0 185.63 182.11
  Z
  M 172.24 261.76
  C 182.04 271.42 196.03 277.03 209.37 276.53
  C 224.68 275.97 238.37 268.05 248.83 256.89
  A 0.90 0.90 0.0 0 0 248.26 255.37
  Q 239.57 254.52 230.98 251.62
  Q 213.70 245.78 200.34 233.39
  C 189.85 223.66 180.86 213.51 169.82 202.93
  C 153.43 187.22 132.85 165.24 113.01 146.57
  Q 105.15 139.17 99.95 136.24
  C 82.24 126.27 59.22 128.22 43.66 140.23
  C 29.18 151.40 21.78 168.76 23.60 187.07
  Q 24.28 193.95 26.78 200.18
  Q 29.65 207.33 33.88 211.87
  Q 69.23 249.81 123.69 301.92
  Q 133.93 311.72 138.99 314.74
  Q 154.02 323.72 172.75 320.72
  C 183.47 319.00 195.65 312.97 201.62 303.52
  A 1.37 1.37 0.0 0 0 200.96 301.52
  Q 189.44 297.07 178.75 292.71
  Q 168.43 288.51 161.92 282.59
  Q 153.40 274.86 127.35 249.65
  Q 111.46 234.27 64.67 186.67
  C 59.53 181.44 59.12 175.78 64.51 170.36
  Q 72.44 162.38 81.63 171.61
  Q 126.73 216.90 172.24 261.76
  Z"
/>
<path d="
  M 580.10 169.46
  A 40.10 40.10 0.0 0 1 540.00 209.56
  A 40.10 40.10 0.0 0 1 499.90 169.46
  A 40.10 40.10 0.0 0 1 540.00 129.36
  A 40.10 40.10 0.0 0 1 580.10 169.46
  Z
  M 530.67 189.83
  Q 546.25 195.90 555.95 184.63
  C 562.24 177.33 562.87 164.88 558.01 156.75
  C 549.26 142.09 525.29 144.28 519.98 160.73
  C 516.67 170.97 519.40 185.45 530.67 189.83
  Z"
/>
<path d="
  M 704.49 193.69
  C 712.48 197.36 720.07 189.14 715.47 181.50
  C 712.96 177.35 704.12 174.45 698.98 172.51
  Q 691.49 169.69 687.95 161.64
  C 684.82 154.52 685.35 147.32 689.41 140.64
  C 696.12 129.62 710.35 126.62 721.30 132.48
  Q 730.95 137.65 731.45 150.74
  Q 731.50 152.08 730.16 152.08
  L 717.06 152.09
  A 1.50 1.50 0.0 0 1 715.56 150.62
  Q 715.41 143.31 707.74 144.19
  Q 705.37 144.47 704.27 145.46
  C 698.19 150.96 704.45 157.18 709.82 159.01
  Q 720.26 162.57 727.09 168.38
  C 733.33 173.68 734.13 183.97 732.34 191.46
  C 729.71 202.45 720.05 209.19 708.74 209.56
  C 692.61 210.08 684.22 198.56 682.76 183.80
  A 1.19 1.19 0.0 0 1 684.29 182.54
  C 685.93 183.03 687.10 182.02 688.57 181.96
  Q 693.18 181.77 697.56 181.94
  A 1.52 1.52 0.0 0 1 699.02 183.49
  Q 698.94 186.54 700.32 189.49
  Q 701.67 192.39 704.49 193.69
  Z"
/>
<path d="
  M 664.62 206.87
  Q 664.73 207.19 664.47 207.39
  Q 664.31 207.50 664.01 207.49
  C 661.02 207.36 657.70 208.04 655.34 208.08
  Q 651.62 208.14 648.53 207.49
  Q 646.89 207.14 646.91 205.47
  Q 647.16 184.89 646.78 164.77
  C 646.68 159.54 644.80 152.37 640.28 149.41
  C 637.98 147.91 634.78 148.09 632.00 147.73
  Q 629.31 147.37 627.54 147.75
  C 617.94 149.82 615.57 159.94 615.44 168.25
  Q 615.15 187.40 615.18 206.30
  A 1.20 1.19 -89.8 0 1 613.98 207.50
  L 608.23 207.50
  Q 607.65 207.50 607.13 207.76
  Q 605.93 208.36 604.79 207.69
  Q 604.41 207.47 603.97 207.48
  L 599.01 207.56
  Q 598.48 207.57 598.40 207.05
  Q 597.98 204.13 597.97 202.50
  Q 597.85 168.96 598.05 132.86
  A 1.22 1.21 0.0 0 1 599.27 131.65
  L 614.72 131.71
  Q 615.22 131.71 615.23 132.22
  L 615.28 137.23
  A 1.07 1.07 0.0 0 0 617.17 137.91
  C 623.69 130.31 632.75 129.23 642.16 130.66
  C 652.32 132.19 659.93 139.30 663.19 148.90
  Q 664.06 151.49 664.42 156.27
  C 664.67 159.64 665.20 162.96 665.18 166.27
  Q 665.06 186.12 665.17 205.98
  Q 665.17 206.29 665.03 206.49
  Q 664.87 206.70 664.62 206.87
  Z"
/>
<path d="
  M 428.19 265.75
  L 437.56 265.87
  A 2.68 2.67 0.6 0 1 440.20 268.56
  L 440.14 280.30
  A 1.93 1.93 0.0 0 1 438.20 282.22
  L 428.31 282.20
  Q 427.33 282.20 427.33 283.19
  L 427.32 340.99
  Q 427.32 342.17 426.14 342.17
  L 411.22 342.22
  A 1.26 1.26 0.0 0 1 409.96 340.96
  L 409.98 283.07
  A 0.81 0.81 0.0 0 0 409.19 282.26
  L 402.07 282.02
  A 1.21 1.21 0.0 0 1 400.89 280.82
  L 400.81 267.39
  A 1.56 1.55 -0.4 0 1 402.36 265.83
  L 408.95 265.77
  Q 409.52 265.77 409.51 265.20
  C 409.44 258.03 410.95 250.62 416.46 245.91
  C 421.92 241.22 431.47 239.60 438.59 240.48
  Q 440.11 240.67 440.12 242.20
  L 440.19 254.54
  A 1.75 1.75 0.0 0 1 438.32 256.30
  Q 436.37 256.17 434.32 256.77
  C 432.33 257.36 430.13 257.52 428.89 259.64
  Q 427.63 261.79 427.57 265.11
  Q 427.56 265.75 428.19 265.75
  Z"
/>
<rect x="455.62" y="241.53" width="17.46" height="100.66" rx="1.11"/>
<rect x="-8.65" y="-8.48" transform="translate(593.84,250.01) rotate(0.1)" width="17.30" height="16.96" rx="0.42"/>
<path d="
  M 684.44 270.51
  L 684.49 242.02
  Q 684.49 241.52 684.99 241.52
  L 700.72 241.51
  Q 701.67 241.51 701.67 242.46
  L 701.71 341.17
  Q 701.71 342.17 700.71 342.17
  L 685.13 342.20
  Q 684.49 342.20 684.49 341.56
  L 684.51 338.70
  A 1.45 1.44 72.8 0 0 682.25 337.50
  C 670.38 345.65 655.04 346.29 642.40 339.69
  C 627.57 331.95 619.11 314.02 621.97 297.60
  C 624.92 280.64 638.24 266.02 656.25 264.63
  Q 658.77 264.43 661.24 263.95
  Q 661.68 263.87 662.15 264.25
  Q 662.54 264.57 663.05 264.56
  Q 673.18 264.43 680.28 269.22
  Q 682.33 270.60 683.60 271.09
  A 0.63 0.62 -79.5 0 0 684.44 270.51
  Z
  M 662.4635 326.5024
  A 22.29 21.72 88.5 0 0 683.5926 303.6514
  A 22.29 21.72 88.5 0 0 661.2965 281.9376
  A 22.29 21.72 88.5 0 0 640.1674 304.7886
  A 22.29 21.72 88.5 0 0 662.4635 326.5024
  Z"
/>
<path d="
  M 798.71 304.03
  A 40.10 40.10 0.0 0 1 758.61 344.13
  A 40.10 40.10 0.0 0 1 718.51 304.03
  A 40.10 40.10 0.0 0 1 758.61 263.93
  A 40.10 40.10 0.0 0 1 798.71 304.03
  Z
  M 758.0136 326.7250
  A 22.75 21.64 91.2 0 0 780.1253 304.4332
  A 22.75 21.64 91.2 0 0 758.9664 281.2350
  A 22.75 21.64 91.2 0 0 736.8547 303.5268
  A 22.75 21.64 91.2 0 0 758.0136 326.7250
  Z"
/>
<path d="
  M 836.54 329.02
  C 840.42 329.30 843.94 327.96 845.23 323.92
  C 849.22 311.51 831.40 309.67 824.43 305.03
  C 813.16 297.53 812.29 280.97 821.55 271.27
  Q 828.53 263.96 838.19 263.97
  Q 847.17 263.99 853.44 269.22
  Q 860.24 274.91 860.83 285.32
  A 1.10 1.10 0.0 0 1 859.72 286.49
  L 845.54 286.44
  A 0.61 0.61 0.0 0 1 844.93 285.86
  Q 844.64 279.26 839.26 278.53
  C 834.67 277.90 830.93 280.76 831.13 285.49
  C 831.33 289.97 837.27 293.19 840.91 294.54
  C 850.13 297.95 859.45 302.36 861.60 312.72
  Q 865.12 329.64 853.11 338.80
  C 845.74 344.43 836.38 345.54 827.74 342.49
  Q 822.61 340.68 818.97 336.46
  Q 812.19 328.59 811.93 317.83
  A 0.90 0.90 0.0 0 1 812.82 316.90
  L 827.49 316.76
  A 0.83 0.83 0.0 0 1 828.32 317.67
  C 827.80 323.05 830.71 328.61 836.54 329.02
  Z"
/>
<path d="
  M 544.73 336.74
  A 0.84 0.84 0.0 0 0 543.28 336.16
  C 535.44 344.40 525.44 345.51 514.68 342.75
  Q 508.93 341.28 503.76 335.51
  C 498.61 329.77 496.95 326.80 495.83 319.36
  Q 495.31 315.88 495.29 311.10
  Q 495.16 288.84 495.30 266.57
  A 0.73 0.73 0.0 0 1 496.03 265.85
  L 511.93 265.83
  A 1.34 1.33 89.8 0 1 513.27 267.17
  Q 513.20 288.02 513.33 309.46
  C 513.33 310.34 513.91 310.87 513.94 311.50
  Q 514.72 326.22 527.59 326.84
  C 534.51 327.18 540.54 324.17 542.81 317.50
  Q 545.25 310.33 545.15 301.00
  Q 544.96 284.79 544.92 268.37
  A 2.53 2.52 -0.3 0 1 547.43 265.84
  L 561.19 265.77
  A 1.42 1.41 89.8 0 1 562.61 267.19
  L 562.57 341.58
  A 0.65 0.65 0.0 0 1 561.92 342.23
  L 546.07 342.14
  A 1.34 1.33 89.8 0 1 544.74 340.81
  L 544.73 336.74
  Z"
/>
<rect x="585.20" y="265.84" width="17.30" height="76.36" rx="1.23"/>
</g>
</svg>
